<svg xmlns="http://www.w3.org/2000/svg"  viewBox="0 0 48 48" width="480px" height="480px" baseProfile="basic"><path fill="#b71c1c" d="M19.606,38.008c-1.199,0-2.365-0.256-3.374-0.74c-1.208-0.581-2.134-1.484-2.676-2.612	c-0.169-0.352-0.522-0.567-0.901-0.567c-0.064,0-0.129,0.006-0.194,0.019c-0.532,0.105-0.982,0.157-1.376,0.157	c-1.134,0-2.228-0.3-3.25-0.892c-4.103-2.375-5.794-8.595-5.867-8.872c1.498,1.011,2.702,1.482,3.789,1.482	c1.655,0,2.716-1.033,3.944-2.228c1.138-1.108,2.426-2.361,4.363-2.677c0.514-0.083,0.877-0.548,0.836-1.067	c-0.162-2.022,0.492-3.886,1.845-5.25c1.22-1.23,2.891-1.908,4.704-1.908c0.451,0,0.913,0.042,1.373,0.123	c0.059,0.011,0.117,0.016,0.175,0.016c0.353,0,0.685-0.187,0.865-0.499C25.356,9.915,28.641,9,31,9c4.881,0,6.455,3.343,6.821,4.368	c0.132,0.37,0.468,0.628,0.859,0.66C42.519,14.343,47,17.406,47,25c0,5.252-4.276,8-8.5,8c-0.119,0-0.235-0.01-0.353-0.019	c-0.026-0.002-0.053-0.003-0.078-0.003c-0.397,0-0.761,0.237-0.92,0.607c-1.222,2.859-3.217,3.869-4.675,4.212	c-0.533,0.125-1.1,0.189-1.682,0.189c-1.737,0-3.631-0.587-4.944-1.533c-0.174-0.125-0.379-0.188-0.584-0.188	c-0.195,0-0.39,0.057-0.559,0.171C23.202,37.45,21.392,38.008,19.606,38.008z"/><path fill="#e0e0e0" d="M38.5,34c-3.032,0-5.5-2.467-5.5-5.5s2.468-5.5,5.5-5.5c0.254,0,0.503,0.017,0.748,0.051	l-0.271,1.981C38.821,25.011,38.662,25,38.5,25c-1.93,0-3.5,1.57-3.5,3.5s1.57,3.5,3.5,3.5c3.727,0,7.5-2.404,7.5-7	c0-7.894-5.028-10-8-10h-0.819l-0.161-0.804C36.984,14.03,36.07,10,31,10c-0.717,0-7,0.168-7,6c0,1.707,1.043,3.43,3.372,3.43	c1.071,0,1.982-0.397,2.437-1.064c0.613-0.9,0.317-2.17-0.039-3.077l1.861-0.731c0.965,2.457,0.44,4.04-0.17,4.935	c-0.827,1.213-2.355,1.938-4.089,1.938C23.846,21.43,22,18.698,22,16c0-6.315,5.657-8,9-8c4.761,0,7.021,2.957,7.763,5.031	C43.348,13.408,48,17.189,48,25C48,30.909,43.221,34,38.5,34z"/><path fill="#e0e0e0" d="M11.085,35.265c-1.314,0-2.569-0.343-3.751-1.027c-4.47-2.587-6.259-9.202-6.333-9.482l-0.68-2.573	l2.206,1.489c3.44,2.323,4.583,1.209,6.478-0.635c1.198-1.167,2.649-2.58,4.898-2.946c-0.185-2.3,0.564-4.454,2.132-6.034	c1.824-1.84,4.436-2.583,7.161-2.037l-0.393,1.961c-2.058-0.414-4.007,0.129-5.349,1.484c-1.336,1.347-1.858,3.291-1.433,5.331	L16.274,22h-1.23c-2.106,0-3.339,1.2-4.644,2.47c-1.612,1.57-3.401,3.31-6.621,2.12c0.839,1.957,2.325,4.627,4.562,5.92	c1.355,0.784,2.793,0.955,4.399,0.525l0.52,1.931C12.52,35.165,11.794,35.265,11.085,35.265z"/><path fill="#e0e0e0" d="M19.606,39.008c-1.327,0-2.632-0.274-3.807-0.839c-2.415-1.161-3.8-3.354-3.8-6.017	C12,29.312,14.312,27,17.152,27c2.269,0,4.301,1.519,4.942,3.693l-1.918,0.566C19.784,29.929,18.54,29,17.152,29	C15.414,29,14,30.414,14,32.152c0,1.891,0.947,3.388,2.666,4.214c2.418,1.162,5.713,0.691,8.009-1.147l0.686-0.548l0.633,0.608	c1.046,1.006,3.681,2.149,6.252,1.544c1.979-0.466,3.396-1.865,4.213-4.159l1.885,0.671c-1.319,3.705-3.795,5-5.639,5.435	c-2.732,0.644-5.678-0.236-7.439-1.505C23.565,38.411,21.562,39.008,19.606,39.008z"/></svg>